{
  "accessors": [
    {
      "bufferView": 0,
      "componentType": 5125,
      "count": 24480,
      "type": "SCALAR"
    },
    {
      "bufferView": 1,
      "componentType": 5126,
      "count": 4658,
      "max": [
        1.49534571170807,
        3.25871300697327,
        2.9507212638855
      ],
      "min": [
        -1.52598202228546,
        -2.53170371055603,
        -1.88535439968109
      ],
      "type": "VEC3"
    },
    {
      "bufferView": 2,
      "componentType": 5126,
      "count": 4658,
      "type": "VEC3"
    },
    {
      "bufferView": 3,
      "componentType": 5126,
      "count": 4658,
      "type": "VEC2"
    },
    {
      "bufferView": 4,
      "componentType": 5125,
      "count": 2880,
      "type": "SCALAR"
    },
    {
      "bufferView": 5,
      "componentType": 5126,
      "count": 514,
      "max": [
        1.0,
        0.999998569488525,
        1.0
      ],
      "min": [
        -1.00000059604645,
        -1.00000047683716,
        -0.999999046325684
      ],
      "type": "VEC3"
    },
    {
      "bufferView": 6,
      "componentType": 5126,
      "count": 514,
      "type": "VEC3"
    },
    {
      "bufferView": 7,
      "componentType": 5126,
      "count": 514,
      "type": "VEC2"
    },
    {
      "bufferView": 8,
      "componentType": 5125,
      "count": 2880,
      "type": "SCALAR"
    },
    {
      "bufferView": 9,
      "componentType": 5126,
      "count": 514,
      "max": [
        0.999999761581421,
        0.999999523162842,
        0.999999523162842
      ],
      "min": [
        -1.00000011920929,
        -0.999999046325684,
        -1.00000047683716
      ],
      "type": "VEC3"
    },
    {
      "bufferView": 10,
      "componentType": 5126,
      "count": 514,
      "type": "VEC3"
    },
    {
      "bufferView": 11,
      "componentType": 5126,
      "count": 514,
      "type": "VEC2"
    },
    {
      "bufferView": 12,
      "componentType": 5125,
      "count": 5760,
      "type": "SCALAR"
    },
    {
      "bufferView": 13,
      "componentType": 5126,
      "count": 1019,
      "max": [
        0.908715963363647,
        1.18378758430481,
        1.59205460548401
      ],
      "min": [
        -0.612100720405579,
        -1.2845401763916,
        -0.321581840515137
      ],
      "type": "VEC3"
    },
    {
      "bufferView": 14,
      "componentType": 5126,
      "count": 1019,
      "type": "VEC3"
    },
    {
      "bufferView": 15,
      "componentType": 5126,
      "count": 1019,
      "type": "VEC2"
    },
    {
      "bufferView": 16,
      "componentType": 5125,
      "count": 5760,
      "type": "SCALAR"
    },
    {
      "bufferView": 17,
      "componentType": 5126,
      "count": 1015,
      "max": [
        0.602026224136353,
        1.17888557910919,
        1.56417679786682
      ],
      "min": [
        -0.811513602733612,
        -1.26350235939026,
        -0.311758041381836
      ],
      "type": "VEC3"
    },
    {
      "bufferView": 18,
      "componentType": 5126,
      "count": 1015,
      "type": "VEC3"
    },
    {
      "bufferView": 19,
      "componentType": 5126,
      "count": 1015,
      "type": "VEC2"
    },
    {
      "bufferView": 20,
      "componentType": 5125,
      "count": 28512,
      "type": "SCALAR"
    },
    {
      "bufferView": 21,
      "componentType": 5126,
      "count": 5562,
      "max": [
        1.28511154651642,
        1.53258919715881,
        1.78188943862915
      ],
      "min": [
        -1.28847098350525,
        -0.720151901245117,
        -0.933161497116089
      ],
      "type": "VEC3"
    },
    {
      "bufferView": 22,
      "componentType": 5126,
      "count": 5562,
      "type": "VEC3"
    },
    {
      "bufferView": 23,
      "componentType": 5126,
      "count": 5562,
      "type": "VEC2"
    },
    {
      "bufferView": 24,
      "componentType": 5125,
      "count": 12480,
      "type": "SCALAR"
    },
    {
      "bufferView": 25,
      "componentType": 5126,
      "count": 2244,
      "max": [
        1.13292407989502,
        0.332813024520874,
        -0.0528323650360107
      ],
      "min": [
        -1.13628470897675,
        -1.79486012458801,
        -0.89967668056488
      ],
      "type": "VEC3"
    },
    {
      "bufferView": 26,
      "componentType": 5126,
      "count": 2244,
      "type": "VEC3"
    },
    {
      "bufferView": 27,
      "componentType": 5126,
      "count": 2244,
      "type": "VEC2"
    }
  ],
  "asset": {
    "generator": "Substance Painter 7.1.1",
    "version": "2.0"
  },
  "bufferViews": [
    {
      "buffer": 0,
      "byteLength": 97920,
      "target": 34963
    },
    {
      "buffer": 0,
      "byteLength": 55896,
      "byteOffset": 97920,
      "target": 34962
    },
    {
      "buffer": 0,
      "byteLength": 55896,
      "byteOffset": 153816,
      "target": 34962
    },
    {
      "buffer": 0,
      "byteLength": 37264,
      "byteOffset": 209712,
      "target": 34962
    },
    {
      "buffer": 0,
      "byteLength": 11520,
      "byteOffset": 246976,
      "target": 34963
    },
    {
      "buffer": 0,
      "byteLength": 6168,
      "byteOffset": 258496,
      "target": 34962
    },
    {
      "buffer": 0,
      "byteLength": 6168,
      "byteOffset": 264664,
      "target": 34962
    },
    {
      "buffer": 0,
      "byteLength": 4112,
      "byteOffset": 270832,
      "target": 34962
    },
    {
      "buffer": 0,
      "byteLength": 11520,
      "byteOffset": 274944,
      "target": 34963
    },
    {
      "buffer": 0,
      "byteLength": 6168,
      "byteOffset": 286464,
      "target": 34962
    },
    {
      "buffer": 0,
      "byteLength": 6168,
      "byteOffset": 292632,
      "target": 34962
    },
    {
      "buffer": 0,
      "byteLength": 4112,
      "byteOffset": 298800,
      "target": 34962
    },
    {
      "buffer": 0,
      "byteLength": 23040,
      "byteOffset": 302912,
      "target": 34963
    },
    {
      "buffer": 0,
      "byteLength": 12228,
      "byteOffset": 325952,
      "target": 34962
    },
    {
      "buffer": 0,
      "byteLength": 12228,
      "byteOffset": 338180,
      "target": 34962
    },
    {
      "buffer": 0,
      "byteLength": 8152,
      "byteOffset": 350408,
      "target": 34962
    },
    {
      "buffer": 0,
      "byteLength": 23040,
      "byteOffset": 358560,
      "target": 34963
    },
    {
      "buffer": 0,
      "byteLength": 12180,
      "byteOffset": 381600,
      "target": 34962
    },
    {
      "buffer": 0,
      "byteLength": 12180,
      "byteOffset": 393780,
      "target": 34962
    },
    {
      "buffer": 0,
      "byteLength": 8120,
      "byteOffset": 405960,
      "target": 34962
    },
    {
      "buffer": 0,
      "byteLength": 114048,
      "byteOffset": 414080,
      "target": 34963
    },
    {
      "buffer": 0,
      "byteLength": 66744,
      "byteOffset": 528128,
      "target": 34962
    },
    {
      "buffer": 0,
      "byteLength": 66744,
      "byteOffset": 594872,
      "target": 34962
    },
    {
      "buffer": 0,
      "byteLength": 44496,
      "byteOffset": 661616,
      "target": 34962
    },
    {
      "buffer": 0,
      "byteLength": 49920,
      "byteOffset": 706112,
      "target": 34963
    },
    {
      "buffer": 0,
      "byteLength": 26928,
      "byteOffset": 756032,
      "target": 34962
    },
    {
      "buffer": 0,
      "byteLength": 26928,
      "byteOffset": 782960,
      "target": 34962
    },
    {
      "buffer": 0,
      "byteLength": 17952,
      "byteOffset": 809888,
      "target": 34962
    }
  ],
  "buffers": [
    {
      "byteLength": 827840,
      "uri": "Untitled.bin"
    }
  ],
  "images": [
    {
      "uri": "BODY-0_baseColor.png"
    },
    {
      "uri": "BODY-0_occlusionRoughnessMetallic.png"
    },
    {
      "uri": "BODY-0_normal.png"
    },
    {
      "uri": "HEAD-0_baseColor.png"
    },
    {
      "uri": "HEAD-0_occlusionRoughnessMetallic.png"
    },
    {
      "uri": "HEAD-0_normal.png"
    },
    {
      "uri": "HEAD-ACC-0_baseColor.png"
    },
    {
      "uri": "HEAD-ACC-0_occlusionRoughnessMetallic.png"
    },
    {
      "uri": "HEAD-ACC-0_normal.png"
    },
    {
      "uri": "HEAD-EYE-L-0_baseColor.png"
    },
    {
      "uri": "HEAD-EYE-L-0_occlusionRoughnessMetallic.png"
    },
    {
      "uri": "HEAD-EYE-L-0_normal.png"
    },
    {
      "uri": "HEAD-EYE-R-0_baseColor.png"
    },
    {
      "uri": "HEAD-EYE-R-0_occlusionRoughnessMetallic.png"
    },
    {
      "uri": "HEAD-EYE-R-0_normal.png"
    },
    {
      "uri": "LEG-L-0_baseColor.png"
    },
    {
      "uri": "LEG-L-0_occlusionRoughnessMetallic.png"
    },
    {
      "uri": "LEG-L-0_normal.png"
    },
    {
      "uri": "LEG-R-0_baseColor.png"
    },
    {
      "uri": "LEG-R-0_occlusionRoughnessMetallic.png"
    },
    {
      "uri": "LEG-R-0_normal.png"
    }
  ],
  "materials": [
    {
      "alphaMode": "OPAQUE",
      "name": "BODY-0",
      "normalTexture": {
        "index": 2
      },
      "occlusionTexture": {
        "index": 1
      },
      "pbrMetallicRoughness": {
        "baseColorTexture": {
          "index": 0
        },
        "metallicRoughnessTexture": {
          "index": 1
        }
      }
    },
    {
      "alphaMode": "OPAQUE",
      "name": "HEAD-0",
      "normalTexture": {
        "index": 5
      },
      "occlusionTexture": {
        "index": 4
      },
      "pbrMetallicRoughness": {
        "baseColorTexture": {
          "index": 3
        },
        "metallicRoughnessTexture": {
          "index": 4
        }
      }
    },
    {
      "alphaMode": "OPAQUE",
      "name": "HEAD-ACC-0",
      "normalTexture": {
        "index": 8
      },
      "occlusionTexture": {
        "index": 7
      },
      "pbrMetallicRoughness": {
        "baseColorTexture": {
          "index": 6
        },
        "metallicRoughnessTexture": {
          "index": 7
        }
      }
    },
    {
      "alphaMode": "OPAQUE",
      "name": "HEAD-EYE-L-0",
      "normalTexture": {
        "index": 11
      },
      "occlusionTexture": {
        "index": 10
      },
      "pbrMetallicRoughness": {
        "baseColorTexture": {
          "index": 9
        },
        "metallicRoughnessTexture": {
          "index": 10
        }
      }
    },
    {
      "alphaMode": "OPAQUE",
      "name": "HEAD-EYE-R-0",
      "normalTexture": {
        "index": 14
      },
      "occlusionTexture": {
        "index": 13
      },
      "pbrMetallicRoughness": {
        "baseColorTexture": {
          "index": 12
        },
        "metallicRoughnessTexture": {
          "index": 13
        }
      }
    },
    {
      "alphaMode": "OPAQUE",
      "name": "LEG-L-0",
      "normalTexture": {
        "index": 17
      },
      "occlusionTexture": {
        "index": 16
      },
      "pbrMetallicRoughness": {
        "baseColorTexture": {
          "index": 15
        },
        "metallicRoughnessTexture": {
          "index": 16
        }
      }
    },
    {
      "alphaMode": "OPAQUE",
      "name": "LEG-R-0",
      "normalTexture": {
        "index": 20
      },
      "occlusionTexture": {
        "index": 19
      },
      "pbrMetallicRoughness": {
        "baseColorTexture": {
          "index": 18
        },
        "metallicRoughnessTexture": {
          "index": 19
        }
      }
    }
  ],
  "meshes": [
    {
      "name": "BODY-0",
      "primitives": [
        {
          "attributes": {
            "NORMAL": 2,
            "POSITION": 1,
            "TEXCOORD_0": 3
          },
          "indices": 0,
          "material": 0,
          "mode": 4
        }
      ]
    },
    {
      "name": "HEAD-EYE-L-0",
      "primitives": [
        {
          "attributes": {
            "NORMAL": 6,
            "POSITION": 5,
            "TEXCOORD_0": 7
          },
          "indices": 4,
          "material": 3,
          "mode": 4
        }
      ]
    },
    {
      "name": "HEAD-EYE-R-0",
      "primitives": [
        {
          "attributes": {
            "NORMAL": 10,
            "POSITION": 9,
            "TEXCOORD_0": 11
          },
          "indices": 8,
          "material": 4,
          "mode": 4
        }
      ]
    },
    {
      "name": "LEG-L-0",
      "primitives": [
        {
          "attributes": {
            "NORMAL": 14,
            "POSITION": 13,
            "TEXCOORD_0": 15
          },
          "indices": 12,
          "material": 5,
          "mode": 4
        }
      ]
    },
    {
      "name": "LEG-R-0",
      "primitives": [
        {
          "attributes": {
            "NORMAL": 18,
            "POSITION": 17,
            "TEXCOORD_0": 19
          },
          "indices": 16,
          "material": 6,
          "mode": 4
        }
      ]
    },
    {
      "name": "HEAD-0",
      "primitives": [
        {
          "attributes": {
            "NORMAL": 22,
            "POSITION": 21,
            "TEXCOORD_0": 23
          },
          "indices": 20,
          "material": 1,
          "mode": 4
        }
      ]
    },
    {
      "name": "HEAD-ACC-0",
      "primitives": [
        {
          "attributes": {
            "NORMAL": 26,
            "POSITION": 25,
            "TEXCOORD_0": 27
          },
          "indices": 24,
          "material": 2,
          "mode": 4
        }
      ]
    }
  ],
  "nodes": [
    {
      "children": [
        1,
        3,
        5,
        7,
        9,
        11,
        13
      ],
      "name": "RootNode"
    },
    {
      "children": [
        2
      ],
      "name": "BODY-0",
      "rotation": [
        -0.707106828689575,
        0.0,
        0.0,
        0.707106709480286
      ],
      "scale": [
        41.6989402770996,
        41.6989402770996,
        41.6989402770996
      ],
      "translation": [
        -144.865951538086,
        135.205429077148,
        -54.5293083190918
      ]
    },
    {
      "mesh": 0,
      "name": "BODY-0"
    },
    {
      "children": [
        4
      ],
      "name": "HEAD-EYE-L-0",
      "rotation": [
        0.993327856063843,
        0.0648964047431946,
        0.00608373433351517,
        0.0951383113861084
      ],
      "scale": [
        13.6289777755737,
        13.628978729248,
        13.6289777755737
      ],
      "translation": [
        -125.186004638672,
        299.714996337891,
        28.3866996765137
      ]
    },
    {
      "mesh": 1,
      "name": "HEAD-EYE-L-0"
    },
    {
      "children": [
        6
      ],
      "name": "HEAD-EYE-R-0",
      "rotation": [
        0.990865528583527,
        0.0650767087936401,
        0.0818524062633514,
        0.0851512253284454
      ],
      "scale": [
        13.6289777755737,
        13.6289777755737,
        13.6289777755737
      ],
      "translation": [
        -168.908996582031,
        299.714996337891,
        28.3866996765137
      ]
    },
    {
      "mesh": 2,
      "name": "HEAD-EYE-R-0"
    },
    {
      "children": [
        8
      ],
      "name": "LEG-L-0",
      "rotation": [
        -0.707106828689575,
        0.0,
        0.0,
        0.707106709480286
      ],
      "scale": [
        41.6989402770996,
        41.6989402770996,
        41.6989402770996
      ],
      "translation": [
        -103.283142089844,
        4.76906061172485,
        -16.8588809967041
      ]
    },
    {
      "mesh": 3,
      "name": "LEG-L-0"
    },
    {
      "children": [
        10
      ],
      "name": "LEG-R-0",
      "rotation": [
        -0.705428540706635,
        -0.0486879982054234,
        -0.0486879982054234,
        0.705428600311279
      ],
      "scale": [
        41.6989402770996,
        41.6989402770996,
        41.6989402770996
      ],
      "translation": [
        -184.605499267578,
        5.20775318145752,
        -17.4416389465332
      ]
    },
    {
      "mesh": 4,
      "name": "LEG-R-0"
    },
    {
      "children": [
        12
      ],
      "name": "HEAD-0",
      "rotation": [
        -0.707106828689575,
        0.0,
        0.0,
        0.707106709480286
      ],
      "scale": [
        41.6989402770996,
        41.6989402770996,
        41.6989402770996
      ],
      "translation": [
        -146.037536621094,
        288.348968505859,
        24.1657981872559
      ]
    },
    {
      "mesh": 5,
      "name": "HEAD-0"
    },
    {
      "children": [
        14
      ],
      "name": "HEAD-ACC-0",
      "rotation": [
        -0.707106828689575,
        0.0,
        0.0,
        0.707106709480286
      ],
      "scale": [
        41.6989402770996,
        41.6989402770996,
        41.6989402770996
      ],
      "translation": [
        -146.037536621094,
        288.348968505859,
        24.1657981872559
      ]
    },
    {
      "mesh": 6,
      "name": "HEAD-ACC-0"
    }
  ],
  "samplers": [
    {
      "magFilter": 9729,
      "minFilter": 9985,
      "wrapS": 10497,
      "wrapT": 10497
    }
  ],
  "scene": 0,
  "scenes": [
    {
      "name": "Scene",
      "nodes": [
        0
      ]
    }
  ],
  "textures": [
    {
      "sampler": 0,
      "source": 0
    },
    {
      "sampler": 0,
      "source": 1
    },
    {
      "sampler": 0,
      "source": 2
    },
    {
      "sampler": 0,
      "source": 3
    },
    {
      "sampler": 0,
      "source": 4
    },
    {
      "sampler": 0,
      "source": 5
    },
    {
      "sampler": 0,
      "source": 6
    },
    {
      "sampler": 0,
      "source": 7
    },
    {
      "sampler": 0,
      "source": 8
    },
    {
      "sampler": 0,
      "source": 9
    },
    {
      "sampler": 0,
      "source": 10
    },
    {
      "sampler": 0,
      "source": 11
    },
    {
      "sampler": 0,
      "source": 12
    },
    {
      "sampler": 0,
      "source": 13
    },
    {
      "sampler": 0,
      "source": 14
    },
    {
      "sampler": 0,
      "source": 15
    },
    {
      "sampler": 0,
      "source": 16
    },
    {
      "sampler": 0,
      "source": 17
    },
    {
      "sampler": 0,
      "source": 18
    },
    {
      "sampler": 0,
      "source": 19
    },
    {
      "sampler": 0,
      "source": 20
    }
  ]
}