{
  "asset": {
    "version": "2.0",
    "generator": "THREE.GLTFExporter"
  },
  "scenes": [
    {
      "name": "Scene",
      "nodes": [
        9,
        10
      ]
    }
  ],
  "scene": 0,
  "nodes": [
    {
      "matrix": [
        -0.2908647428269262,
        -0.055189063886274425,
        -0.9551712048106182,
        0,
        0.5663932381446841,
        0.7946722584579202,
        -0.21839122503485697,
        0,
        0.7711008773539234,
        -0.6045247675783045,
        -0.19988344806390224,
        0,
        24.52735137939453,
        13.315403938293457,
        29.141944885253906,
        1
      ],
      "name": "Lamp",
      "extras": {
        "name": "Lamp"
      }
    },
    {
      "matrix": [
        0.8490801884541397,
        -0.000009462508719693119,
        0.528264042209047,
        0,
        -0.49775299257590966,
        0.33491611317264436,
        0.8000458993771415,
        0,
        -0.17693178561894207,
        -0.9422481003636536,
        0.2843659049472609,
        0,
        -3.3216872215270996,
        4.28672981262207,
        5.675904750823975,
        1
      ],
      "name": "Camera",
      "extras": {
        "name": "Camera"
      }
    },
    {
      "matrix": [
        0.1351317062881894,
        0.017729172777595958,
        -0.00003570663352131993,
        0,
        0.003330177984562244,
        -0.02565211457160466,
        -0.1338124957647729,
        0,
        -0.017413639000526275,
        0.13267461848431028,
        -0.025867352815958953,
        0,
        -1.2518634796142578,
        2.9971537590026855,
        0.28386712074279785,
        1
      ],
      "name": "OJO_DERE",
      "extras": {
        "name": "OJO DERE"
      },
      "mesh": 0
    },
    {
      "matrix": [
        0.13330917507653753,
        0.019476376998302253,
        0.02059702612395417,
        0,
        0.023617950096401167,
        -0.021546537534214562,
        -0.1324871460630516,
        0,
        -0.015676709894445993,
        0.13315902543573874,
        -0.02445042997650065,
        0,
        -1.6890850067138672,
        2.9971537590026855,
        0.28386712074279785,
        1
      ],
      "name": "OJO_IZQ_",
      "extras": {
        "name": "OJO IZQ "
      },
      "mesh": 1
    },
    {
      "matrix": [
        0.41698938608169556,
        0,
        0,
        0,
        0,
        0.41698938608169556,
        0,
        0,
        0,
        0,
        0.41698938608169556,
        0,
        2.9560508728027344,
        2.6839189529418945,
        -0.6393810510635376,
        1
      ],
      "name": "CABEZA",
      "extras": {
        "name": "CABEZA"
      },
      "mesh": 2
    },
    {
      "matrix": [
        0.41303545585679585,
        0,
        0.0572875232029248,
        0,
        0,
        0.41698938608169556,
        0,
        0,
        -0.0572875232029248,
        0,
        0.41303545585679585,
        0,
        -4.944701194763184,
        2.826742172241211,
        0.32812774181365967,
        1
      ],
      "name": "PATA_IZQ",
      "extras": {
        "name": "PATA IZQ"
      },
      "mesh": 3
    },
    {
      "matrix": [
        0.41698938608169556,
        0,
        0,
        0,
        0,
        0.41698938608169556,
        0,
        0,
        0,
        0,
        0.41698938608169556,
        0,
        -3.394012451171875,
        2.846106767654419,
        0.29101961851119995,
        1
      ],
      "name": "CUERPO",
      "extras": {
        "name": "CUERPO"
      },
      "mesh": 4
    },
    {
      "matrix": [
        0.41698938608169556,
        0,
        0,
        0,
        0,
        0.41698938608169556,
        0,
        0,
        0,
        0,
        0.41698938608169556,
        0,
        -4.773425102233887,
        2.8300366401672363,
        0.7903144359588623,
        1
      ],
      "name": "PATA_DERE",
      "extras": {
        "name": "PATA DERE"
      },
      "mesh": 5
    },
    {
      "matrix": [
        0.49592605233192444,
        0,
        0,
        0,
        0,
        -1.3435885648505064e-7,
        1.0000001343588565,
        0,
        0,
        -0.49592611896398175,
        -6.663205729246275e-8,
        0,
        -1.4430590867996216,
        1.7423030138015747,
        0.5097740292549133,
        1
      ],
      "name": "geometrico",
      "extras": {
        "name": "geometrico"
      },
      "mesh": 6
    },
    {
      "name": "Duck.gltf",
      "children": [
        0,
        1,
        2,
        3,
        4,
        5,
        6,
        7,
        8
      ]
    },
    {
      "matrix": [
        1,
        0,
        0,
        0,
        0,
        1,
        0,
        0,
        0,
        0,
        1,
        0,
        5,
        10,
        7.5,
        1
      ],
      "name": "DirectionalLight",
      "extensions": {
        "KHR_lights_punctual": {
          "light": 0
        }
      }
    }
  ],
  "bufferViews": [
    {
      "buffer": 0,
      "byteOffset": 0,
      "byteLength": 6168,
      "target": 34962,
      "byteStride": 12
    },
    {
      "buffer": 0,
      "byteOffset": 6168,
      "byteLength": 6168,
      "target": 34962,
      "byteStride": 12
    },
    {
      "buffer": 0,
      "byteOffset": 12336,
      "byteLength": 8224,
      "target": 34962,
      "byteStride": 16
    },
    {
      "buffer": 0,
      "byteOffset": 20560,
      "byteLength": 4112,
      "target": 34962,
      "byteStride": 8
    },
    {
      "buffer": 0,
      "byteOffset": 24672,
      "byteLength": 5760,
      "target": 34963
    },
    {
      "buffer": 0,
      "byteOffset": 30432,
      "byteLength": 6168,
      "target": 34962,
      "byteStride": 12
    },
    {
      "buffer": 0,
      "byteOffset": 36600,
      "byteLength": 6168,
      "target": 34962,
      "byteStride": 12
    },
    {
      "buffer": 0,
      "byteOffset": 42768,
      "byteLength": 8224,
      "target": 34962,
      "byteStride": 16
    },
    {
      "buffer": 0,
      "byteOffset": 50992,
      "byteLength": 4112,
      "target": 34962,
      "byteStride": 8
    },
    {
      "buffer": 0,
      "byteOffset": 55104,
      "byteLength": 88404,
      "target": 34962,
      "byteStride": 12
    },
    {
      "buffer": 0,
      "byteOffset": 143508,
      "byteLength": 88404,
      "target": 34962,
      "byteStride": 12
    },
    {
      "buffer": 0,
      "byteOffset": 231912,
      "byteLength": 81984,
      "target": 34963
    },
    {
      "buffer": 0,
      "byteOffset": 313896,
      "byteLength": 11676,
      "target": 34962,
      "byteStride": 12
    },
    {
      "buffer": 0,
      "byteOffset": 325572,
      "byteLength": 11676,
      "target": 34962,
      "byteStride": 12
    },
    {
      "buffer": 0,
      "byteOffset": 337248,
      "byteLength": 11520,
      "target": 34963
    },
    {
      "buffer": 0,
      "byteOffset": 348768,
      "byteLength": 53760,
      "target": 34962,
      "byteStride": 12
    },
    {
      "buffer": 0,
      "byteOffset": 402528,
      "byteLength": 53760,
      "target": 34962,
      "byteStride": 12
    },
    {
      "buffer": 0,
      "byteOffset": 456288,
      "byteLength": 48960,
      "target": 34963
    },
    {
      "buffer": 0,
      "byteOffset": 505248,
      "byteLength": 11676,
      "target": 34962,
      "byteStride": 12
    },
    {
      "buffer": 0,
      "byteOffset": 516924,
      "byteLength": 11676,
      "target": 34962,
      "byteStride": 12
    },
    {
      "buffer": 0,
      "byteOffset": 528600,
      "byteLength": 11520,
      "target": 34963
    },
    {
      "buffer": 0,
      "byteOffset": 540120,
      "byteLength": 196608,
      "target": 34962,
      "byteStride": 12
    },
    {
      "buffer": 0,
      "byteOffset": 736728,
      "byteLength": 196608,
      "target": 34962,
      "byteStride": 12
    },
    {
      "buffer": 0,
      "byteOffset": 933336,
      "byteLength": 262144,
      "target": 34962,
      "byteStride": 16
    },
    {
      "buffer": 0,
      "byteOffset": 1195480,
      "byteLength": 131072,
      "target": 34962,
      "byteStride": 8
    },
    {
      "buffer": 0,
      "byteOffset": 1326552,
      "byteLength": 49152,
      "target": 34963
    }
  ],
  "buffers": [
    {
      "byteLength": 1375704,
      "uri": "data:application/octet-stream;base64,"
    }
  ],
  "accessors": [
    {
      "bufferView": 0,
      "componentType": 5126,
      "count": 514,
      "max": [
        1.0000003576278687,
        1,
        0.9999998211860657
      ],
      "min": [
        -1,
        -1,
        -1.000000238418579
      ],
      "type": "VEC3"
    },
    {
      "bufferView": 1,
      "componentType": 5126,
      "count": 514,
      "max": [
        1,
        1,
        1
      ],
      "min": [
        -1,
        -1,
        -1
      ],
      "type": "VEC3"
    },
    {
      "bufferView": 2,
      "componentType": 5126,
      "count": 514,
      "max": [
        1,
        1,
        0.1015988290309906,
        1
      ],
      "min": [
        0,
        -1,
        -0.1015949472784996,
        -1
      ],
      "type": "VEC4"
    },
    {
      "bufferView": 3,
      "componentType": 5126,
      "count": 514,
      "max": [
        0.6273337006568909,
        0.6037209033966064
      ],
      "min": [
        0.1991073489189148,
        0.1754949688911438
      ],
      "type": "VEC2"
    },
    {
      "bufferView": 4,
      "componentType": 5123,
      "count": 2880,
      "max": [
        513
      ],
      "min": [
        0
      ],
      "type": "SCALAR"
    },
    {
      "bufferView": 5,
      "componentType": 5126,
      "count": 514,
      "max": [
        1.0000003576278687,
        1,
        0.9999998211860657
      ],
      "min": [
        -1,
        -1,
        -1.000000238418579
      ],
      "type": "VEC3"
    },
    {
      "bufferView": 6,
      "componentType": 5126,
      "count": 514,
      "max": [
        1,
        1,
        1
      ],
      "min": [
        -1,
        -1,
        -1
      ],
      "type": "VEC3"
    },
    {
      "bufferView": 7,
      "componentType": 5126,
      "count": 514,
      "max": [
        1,
        1,
        0.1015988290309906,
        1
      ],
      "min": [
        0,
        -1,
        -0.1015949472784996,
        -1
      ],
      "type": "VEC4"
    },
    {
      "bufferView": 8,
      "componentType": 5126,
      "count": 514,
      "max": [
        0.6273337006568909,
        0.6037209033966064
      ],
      "min": [
        0.1991073489189148,
        0.1754949688911438
      ],
      "type": "VEC2"
    },
    {
      "bufferView": 9,
      "componentType": 5126,
      "count": 7367,
      "max": [
        -9.306107521057129,
        2.2604851722717285,
        3.907717227935791
      ],
      "min": [
        -11.879690170288086,
        -0.4545653462409973,
        0.580268383026123
      ],
      "type": "VEC3"
    },
    {
      "bufferView": 10,
      "componentType": 5126,
      "count": 7367,
      "max": [
        0.999603271484375,
        0.99993896484375,
        0.99945068359375
      ],
      "min": [
        -1,
        -0.999969482421875,
        -0.999542236328125
      ],
      "type": "VEC3"
    },
    {
      "bufferView": 11,
      "componentType": 5123,
      "count": 40992,
      "max": [
        7366
      ],
      "min": [
        0
      ],
      "type": "SCALAR"
    },
    {
      "bufferView": 12,
      "componentType": 5126,
      "count": 973,
      "max": [
        7.796987056732178,
        -5.0898590087890625,
        -0.9511403441429138
      ],
      "min": [
        6.383446216583252,
        -6.965794086456299,
        -3.3935279846191406
      ],
      "type": "VEC3"
    },
    {
      "bufferView": 13,
      "componentType": 5126,
      "count": 973,
      "max": [
        0.999969482421875,
        0.99993896484375,
        0.9987792372703552
      ],
      "min": [
        -0.999420166015625,
        -0.999786376953125,
        -0.999847412109375
      ],
      "type": "VEC3"
    },
    {
      "bufferView": 14,
      "componentType": 5123,
      "count": 5760,
      "max": [
        972
      ],
      "min": [
        0
      ],
      "type": "SCALAR"
    },
    {
      "bufferView": 15,
      "componentType": 5126,
      "count": 4480,
      "max": [
        6.160573482513428,
        -0.6322383880615234,
        0.5261054635047913
      ],
      "min": [
        3.1392457485198975,
        -5.468313217163086,
        -5.264310836791992
      ],
      "type": "VEC3"
    },
    {
      "bufferView": 16,
      "componentType": 5126,
      "count": 4480,
      "max": [
        0.999908447265625,
        0.999969482421875,
        0.999908447265625
      ],
      "min": [
        -0.999908447265625,
        -0.9996337890625,
        -0.999053955078125
      ],
      "type": "VEC3"
    },
    {
      "bufferView": 17,
      "componentType": 5123,
      "count": 24480,
      "max": [
        4479
      ],
      "min": [
        0
      ],
      "type": "SCALAR"
    },
    {
      "bufferView": 18,
      "componentType": 5126,
      "count": 973,
      "max": [
        9.879203796386719,
        -5.080415725708008,
        -1.0150461196899414
      ],
      "min": [
        8.35838794708252,
        -6.994051933288574,
        -3.4833731651306152
      ],
      "type": "VEC3"
    },
    {
      "bufferView": 19,
      "componentType": 5126,
      "count": 973,
      "max": [
        0.9996337890625,
        1,
        0.999908447265625
      ],
      "min": [
        -0.99908447265625,
        -0.9993896484375,
        -0.9988402724266052
      ],
      "type": "VEC3"
    },
    {
      "bufferView": 20,
      "componentType": 5123,
      "count": 5760,
      "max": [
        972
      ],
      "min": [
        0
      ],
      "type": "SCALAR"
    },
    {
      "bufferView": 21,
      "componentType": 5126,
      "count": 16384,
      "max": [
        0.45249104499816895,
        0.008168771862983704,
        0.49963998794555664
      ],
      "min": [
        -0.4714522361755371,
        -0.13055488467216492,
        -0.37208354473114014
      ],
      "type": "VEC3"
    },
    {
      "bufferView": 22,
      "componentType": 5126,
      "count": 16384,
      "max": [
        0.4272335171699524,
        0.9998427033424377,
        0.6979830265045166
      ],
      "min": [
        -0.42713627219200134,
        0.7161130905151367,
        -0.6667516231536865
      ],
      "type": "VEC3"
    },
    {
      "bufferView": 23,
      "componentType": 5126,
      "count": 16384,
      "max": [
        0.9999986886978149,
        0.4858410954475403,
        0.8983267545700073,
        1
      ],
      "min": [
        0.4108632504940033,
        -0.48584744334220886,
        -0.8690162897109985,
        1
      ],
      "type": "VEC4"
    },
    {
      "bufferView": 24,
      "componentType": 5126,
      "count": 16384,
      "max": [
        1.0000001192092896,
        1
      ],
      "min": [
        0,
        -1.1920928955078125e-7
      ],
      "type": "VEC2"
    },
    {
      "bufferView": 25,
      "componentType": 5123,
      "count": 24576,
      "max": [
        16383
      ],
      "min": [
        0
      ],
      "type": "SCALAR"
    }
  ],
  "materials": [
    {
      "pbrMetallicRoughness": {
        "baseColorFactor": [
          0.006143314763903618,
          0.8000000715255737,
          0.004697986878454685,
          1
        ],
        "metallicFactor": 0.4047619104385376,
        "roughnessFactor": 0.5
      },
      "doubleSided": true,
      "name": "Material.021"
    },
    {
      "pbrMetallicRoughness": {
        "baseColorFactor": [
          0.01907348819077015,
          0.8000000715255737,
          0,
          1
        ],
        "metallicFactor": 0.261904776096344,
        "roughnessFactor": 0.5
      },
      "doubleSided": true,
      "name": "Material.022"
    },
    {
      "pbrMetallicRoughness": {
        "baseColorFactor": [
          0.0019516452448442578,
          0.0035529430024325848,
          0.0022443165071308613,
          1
        ],
        "metallicFactor": 0.341269850730896,
        "roughnessFactor": 0.5
      },
      "doubleSided": true,
      "name": "Material.019"
    },
    {
      "pbrMetallicRoughness": {
        "baseColorFactor": [
          0,
          0,
          0,
          1
        ],
        "metallicFactor": 0.4285714328289032,
        "roughnessFactor": 0.5
      },
      "doubleSided": true,
      "name": "Material.007"
    },
    {
      "pbrMetallicRoughness": {
        "baseColorFactor": [
          0.005730480886995792,
          0.2530533969402313,
          0,
          1
        ],
        "metallicFactor": 0.3253968358039856,
        "roughnessFactor": 0.5
      },
      "doubleSided": true,
      "name": "Material.020"
    },
    {
      "pbrMetallicRoughness": {
        "baseColorFactor": [
          0,
          0,
          0,
          1
        ],
        "metallicFactor": 0.380952388048172,
        "roughnessFactor": 0.5
      },
      "doubleSided": true,
      "name": "Material.006"
    },
    {
      "pbrMetallicRoughness": {
        "metallicFactor": 0,
        "roughnessFactor": 0.5,
        "baseColorTexture": {
          "index": 0
        }
      },
      "alphaMode": "BLEND",
      "doubleSided": true,
      "name": "geometrico"
    }
  ],
  "meshes": [
    {
      "primitives": [
        {
          "mode": 4,
          "attributes": {
            "POSITION": 0,
            "NORMAL": 1,
            "TANGENT": 2,
            "TEXCOORD_0": 3
          },
          "indices": 4,
          "material": 0
        }
      ]
    },
    {
      "primitives": [
        {
          "mode": 4,
          "attributes": {
            "POSITION": 5,
            "NORMAL": 6,
            "TANGENT": 7,
            "TEXCOORD_0": 8
          },
          "indices": 4,
          "material": 1
        }
      ]
    },
    {
      "primitives": [
        {
          "mode": 4,
          "attributes": {
            "POSITION": 9,
            "NORMAL": 10
          },
          "indices": 11,
          "material": 2
        }
      ]
    },
    {
      "primitives": [
        {
          "mode": 4,
          "attributes": {
            "POSITION": 12,
            "NORMAL": 13
          },
          "indices": 14,
          "material": 3
        }
      ]
    },
    {
      "primitives": [
        {
          "mode": 4,
          "attributes": {
            "POSITION": 15,
            "NORMAL": 16
          },
          "indices": 17,
          "material": 4
        }
      ]
    },
    {
      "primitives": [
        {
          "mode": 4,
          "attributes": {
            "POSITION": 18,
            "NORMAL": 19
          },
          "indices": 20,
          "material": 5
        }
      ]
    },
    {
      "primitives": [
        {
          "mode": 4,
          "attributes": {
            "POSITION": 21,
            "NORMAL": 22,
            "TANGENT": 23,
            "TEXCOORD_0": 24
          },
          "indices": 25,
          "material": 6
        }
      ]
    }
  ],
  "textures": [
    {
      "sampler": 0,
      "source": 0
    }
  ],
  "samplers": [
    {
      "magFilter": 9729,
      "minFilter": 9987,
      "wrapS": 33071,
      "wrapT": 33071
    }
  ],
  "images": [
    {
      "mimeType": "image/png",
      "uri": "data:image/png;base64,"
    }
  ],
  "extensions": {
    "KHR_lights_punctual": {
      "lights": [
        {
          "name": "DirectionalLight",
          "color": [
            1,
            1,
            1
          ],
          "intensity": 1,
          "type": "directional"
        }
      ]
    }
  },
  "extensionsUsed": [
    "KHR_lights_punctual"
  ]
}